<svg width="281" height="241" viewBox="0 0 281 241" fill="none" xmlns="http://www.w3.org/2000/svg">
<path d="M280.307 99.904C280.307 122.952 274.622 145.645 263.757 165.972C252.893 186.299 237.182 203.632 218.018 216.437C198.854 229.242 176.828 237.123 153.891 239.382C130.953 241.642 107.813 238.209 86.519 229.389C65.2251 220.569 46.4351 206.633 31.8133 188.816C17.1916 171 7.18952 149.852 2.69301 127.247C-1.8035 104.641 -0.655629 81.2756 6.03495 59.2197C12.7255 37.1638 24.7523 17.0983 41.0499 0.800692L62.9516 22.7024C50.2557 35.3983 40.8869 51.0293 35.6749 68.2109C30.4629 85.3924 29.5687 103.594 33.0715 121.204C36.5743 138.814 44.3659 155.288 55.7563 169.167C67.1466 183.046 81.7841 193.902 98.3721 200.773C114.96 207.644 132.987 210.318 150.855 208.558C168.723 206.798 185.881 200.659 200.81 190.684C215.739 180.709 227.977 167.206 236.441 151.371C244.905 135.536 249.333 117.859 249.333 99.904H280.307Z" fill="url(#paint0_linear_237_2344)"/>
<defs>
<linearGradient id="paint0_linear_237_2344" x1="140.153" y1="-40.2493" x2="140.153" y2="240.057" gradientUnits="userSpaceOnUse">
<stop stop-color="#15B9B9"/>
<stop offset="1" stop-color="#3C1DFF"/>
</linearGradient>
</defs>
</svg>
