<svg width="281" height="241" viewBox="0 0 281 241" fill="none" xmlns="http://www.w3.org/2000/svg">
<path d="M280.693 99.904C280.693 122.952 275.009 145.645 264.144 165.972C253.279 186.299 237.569 203.632 218.405 216.437C199.241 229.242 177.215 237.123 154.277 239.382C131.34 241.642 108.2 238.209 86.9057 229.389C65.6118 220.569 46.8218 206.633 32.2001 188.816C17.5783 171 7.57624 149.852 3.07973 127.247C-1.41678 104.641 -0.26891 81.2756 6.42167 59.2197C13.1123 37.1638 25.139 17.0983 41.4367 0.800692L63.3383 22.7024C50.6425 35.3983 41.2736 51.0293 36.0616 68.2109C30.8496 85.3924 29.9554 103.594 33.4582 121.204C36.961 138.814 44.7527 155.288 56.143 169.167C67.5334 183.046 82.1708 193.902 98.7588 200.773C115.347 207.644 133.373 210.318 151.242 208.558C169.11 206.798 186.268 200.659 201.197 190.684C216.126 180.709 228.364 167.206 236.828 151.371C245.292 135.536 249.72 117.859 249.72 99.904H280.693Z" fill="url(#paint0_linear_237_2343)"/>
<defs>
<linearGradient id="paint0_linear_237_2343" x1="140.54" y1="-40.2493" x2="140.54" y2="240.057" gradientUnits="userSpaceOnUse">
<stop stop-color="#15B9B9"/>
<stop offset="1" stop-color="#3C1DFF"/>
</linearGradient>
</defs>
</svg>
