<svg width="121" height="121" viewBox="0 0 121 121" fill="none" xmlns="http://www.w3.org/2000/svg">
<path d="M0.540039 10.0574C0.540039 4.53452 5.01719 0.057373 10.54 0.057373H110.54C116.063 0.057373 120.54 4.53453 120.54 10.0574V110.057C120.54 115.58 116.063 120.057 110.54 120.057H10.54C5.01719 120.057 0.540039 115.58 0.540039 110.057V10.0574Z" fill="#383E45"/>
<path d="M18.54 17.0574H103.54V102.057H18.54V17.0574Z" fill="#F7DF1E"/>
<path d="M40.8897 88.0895L47.3942 84.1529C48.6493 86.3779 49.7908 88.2605 52.5291 88.2605C55.1538 88.2605 56.809 87.2338 56.809 83.2402V56.0807H64.7966V83.3531C64.7966 91.6263 59.947 95.3922 52.8714 95.3922C46.4815 95.3922 42.7727 92.0835 40.8897 88.0895ZM69.1353 87.2335L75.6391 83.4679C77.3514 86.264 79.5767 88.3179 83.5132 88.3179C86.8233 88.3179 88.9336 86.6631 88.9336 84.3807C88.9336 81.6421 86.7655 80.6719 83.1138 79.0748L81.1173 78.2182C75.3542 75.7655 71.5316 72.6842 71.5316 66.1797C71.5316 60.1886 76.096 55.6238 83.2283 55.6238C88.3064 55.6238 91.9581 57.3929 94.5825 62.0144L88.3629 66.0087C86.9932 63.5554 85.5104 62.5855 83.228 62.5855C80.8885 62.5855 79.405 64.069 79.405 66.0087C79.405 68.405 80.8885 69.3755 84.3118 70.859L86.3086 71.7147C93.0986 74.625 96.9213 77.5917 96.9213 84.2668C96.9213 91.4566 91.2728 95.3932 83.6842 95.3932C76.267 95.3932 71.4744 91.8554 69.1353 87.2335Z" fill="black"/>
</svg>
