<svg width="21" height="29" viewBox="0 0 21 29" fill="none" xmlns="http://www.w3.org/2000/svg">
<path d="M0.140625 23.9796V5.08182C0.140625 3.96805 0.491192 2.89989 1.11521 2.11233C1.73922 1.32477 2.58556 0.882324 3.46805 0.882324H18.996C19.2902 0.882324 19.5723 1.02981 19.7803 1.29233C19.9883 1.55485 20.1052 1.9109 20.1052 2.28216V27.4792C20.1052 27.8504 19.9883 28.2065 19.7803 28.469C19.5723 28.7315 19.2902 28.879 18.996 28.879H4.02262C2.99305 28.879 2.00565 28.3628 1.27764 27.444C0.54962 26.5252 0.140625 25.279 0.140625 23.9796V23.9796ZM17.8869 26.0793V21.8798H4.02262C3.58138 21.8798 3.15821 22.101 2.8462 22.4948C2.53419 22.8886 2.35891 23.4227 2.35891 23.9796C2.35891 24.5365 2.53419 25.0705 2.8462 25.4643C3.15821 25.8581 3.58138 26.0793 4.02262 26.0793H17.8869ZM2.35891 19.5519C2.87875 19.2404 3.44715 19.0792 4.02262 19.0802H17.8869V3.68199H3.46805C3.17389 3.68199 2.89177 3.82947 2.68377 4.09199C2.47577 4.35451 2.35891 4.71057 2.35891 5.08182V19.5519Z" fill="white"/>
</svg>
