<svg width="106" height="104" viewBox="0 0 106 104" fill="none" xmlns="http://www.w3.org/2000/svg">
<path d="M5.33621 5.05862H101.584V98.6811H5.33621V5.05862Z" fill="#0C0824"/>
<path d="M5.33621 5.05862H101.584V98.6811H5.33621V5.05862ZM0.959961 103.057H105.96V0.682373H0.959961V103.057ZM71.7487 42.6824C68.2912 42.6824 67.11 44.4336 67.11 45.8774C67.11 47.4524 67.8975 48.5474 72.5362 50.9511C79.4062 54.2774 81.5362 57.4686 81.5362 62.1524C81.5362 69.1536 76.2 72.9149 68.9812 72.9149C65.8831 73.0297 62.8039 72.386 60.0112 71.0399C59.7037 70.9086 59.6625 70.6911 59.6625 70.3386V63.8999C59.6625 63.4611 59.88 63.3299 60.1875 63.5511C62.8102 65.2376 65.863 66.1333 68.9812 66.1311C72.4387 66.1311 73.8825 64.6874 73.8825 62.7186C73.8825 61.1436 72.8775 59.7449 68.4562 57.4686C62.2425 54.4949 59.6625 51.4686 59.6625 46.4436C59.6625 40.7999 64.08 36.1199 71.7375 36.1199C74.403 36.0054 77.0646 36.4222 79.5675 37.3461C79.7116 37.4397 79.8282 37.5699 79.9053 37.7235C79.9824 37.8771 80.0173 38.0484 80.0062 38.2199V44.2199C80.0062 44.5686 79.7887 44.7899 79.35 44.6586C77.0368 43.327 74.4062 42.6467 71.7375 42.6899L71.7487 42.6824ZM34.1212 47.8874C35.1262 47.9736 35.9137 47.9736 37.665 47.9736C42.7837 47.9736 47.595 46.1811 47.595 39.2249C47.595 33.6674 44.1375 30.8699 38.3212 30.8699C36.57 30.8699 34.9087 30.9561 34.1212 31.0011V47.8874ZM26.3325 24.6374C26.3325 24.3299 26.9437 24.1124 27.2962 24.1124C31.0567 23.9587 34.8201 23.8862 38.5837 23.8949C50.7037 23.8949 55.4287 30.5436 55.4287 39.0336C55.4287 50.1449 47.3775 54.9149 37.4925 54.9149C35.8312 54.9149 35.2612 54.8286 34.08 54.8286V71.6286C34.08 71.9774 33.9487 72.1536 33.555 72.1536H26.8612C26.5125 72.1536 26.3362 72.0224 26.3362 71.6286V24.6561L26.3325 24.6374Z" fill="#31C5F0"/>
</svg>
