<svg width="506" height="76" viewBox="0 0 506 76" fill="none" xmlns="http://www.w3.org/2000/svg">
<path d="M37.9488 1.08789C29.0444 1.08826 20.4306 4.25707 13.6487 10.0273C6.86684 15.7976 2.35946 23.7927 0.933082 32.5822C-0.493297 41.3717 1.2544 50.3819 5.86346 58.0007C10.4725 65.6195 17.6422 71.3497 26.0895 74.166C27.9645 74.4942 28.6677 73.3692 28.6677 72.3847C28.6677 71.4941 28.6207 68.541 28.6207 65.4004C19.1988 67.1347 16.7613 63.1036 16.0113 60.9943C15.1791 58.9427 13.8599 57.1247 12.1676 55.6973C10.8551 54.9941 8.98008 53.2598 12.1207 53.213C13.3199 53.3431 14.47 53.7604 15.4737 54.4295C16.4774 55.0985 17.3049 55.9997 17.8863 57.0566C18.3992 57.978 19.0889 58.7891 19.9158 59.4435C20.7427 60.0978 21.6906 60.5826 22.7052 60.87C23.7198 61.1574 24.7811 61.2418 25.8284 61.1183C26.8756 60.9948 27.8882 60.6659 28.8081 60.1504C28.9705 58.2439 29.8201 56.4615 31.1988 55.1349C22.8551 54.1974 14.1363 50.9629 14.1363 36.6193C14.0836 32.8923 15.4589 29.2864 17.9801 26.5411C16.8336 23.302 16.9678 19.7472 18.3551 16.6036C18.3551 16.6036 21.4956 15.6192 28.6676 20.4474C34.8037 18.7598 41.2815 18.7598 47.4176 20.4474C54.5894 15.5724 57.7301 16.6036 57.7301 16.6036C59.1176 19.7472 59.2517 23.302 58.1051 26.5411C60.6339 29.2817 62.0103 32.8908 61.9488 36.6193C61.9488 51.0098 53.1831 54.1974 44.8395 55.1349C45.7344 56.0419 46.4236 57.131 46.8604 58.328C47.2972 59.5251 47.4712 60.8021 47.3707 62.0724C47.3707 67.0881 47.3238 71.1192 47.3238 72.3849C47.3238 73.3693 48.0269 74.5411 49.9019 74.1661C58.3344 71.3269 65.4835 65.5833 70.0729 57.9606C74.6623 50.3379 76.3934 41.3323 74.9571 32.5513C73.5209 23.7703 69.0107 15.7855 62.2318 10.0223C55.4529 4.25908 46.8465 1.09252 37.9488 1.08789Z" fill="#1F2833"/>
<path d="M216.449 14.4502C213.63 15.6731 210.65 16.4815 207.599 16.8502C210.817 14.9277 213.229 11.9032 214.387 8.33775C211.363 10.138 208.052 11.4064 204.599 12.0877C202.291 9.58489 199.218 7.91886 195.861 7.35094C192.504 6.78302 189.054 7.34534 186.051 8.94971C183.048 10.5541 180.663 13.1097 179.269 16.2159C177.875 19.322 177.552 22.803 178.349 26.1127C172.235 25.8035 166.253 24.2113 160.794 21.4397C155.335 18.6681 150.52 14.7791 146.662 10.0252C145.308 12.3884 144.597 15.0646 144.599 17.7877C144.594 20.3167 145.215 22.8076 146.406 25.0386C147.597 27.2697 149.321 29.1717 151.424 30.5752C148.979 30.5087 146.586 29.8526 144.449 28.6627V28.8502C144.468 32.3936 145.709 35.8218 147.964 38.5551C150.219 41.2884 153.349 43.1589 156.824 43.8503C155.486 44.2574 154.097 44.472 152.699 44.4878C151.731 44.4764 150.766 44.3887 149.812 44.2253C150.801 47.2733 152.717 49.937 155.291 51.8458C157.865 53.7547 160.97 54.8136 164.174 54.8752C158.764 59.1325 152.084 61.456 145.199 61.4753C143.946 61.4794 142.693 61.4042 141.449 61.2503C148.478 65.7887 156.67 68.198 165.037 68.1877C170.811 68.2477 176.538 67.1566 181.886 64.9781C187.233 62.7995 192.093 59.5773 196.181 55.4996C200.269 51.4219 203.504 46.5705 205.696 41.2286C207.889 35.8868 208.994 30.1617 208.949 24.3877C208.949 23.7502 208.949 23.0752 208.949 22.4002C211.892 20.2058 214.43 17.5156 216.449 14.4502Z" fill="#1F2833"/>
<path d="M351.487 0.162878H287.962C287.248 0.152961 286.539 0.283806 285.875 0.547942C285.212 0.812078 284.607 1.20433 284.095 1.7023C283.583 2.20027 283.174 2.79419 282.892 3.45016C282.609 4.10613 282.459 4.8113 282.449 5.52538V69.8004C282.459 70.5145 282.609 71.2196 282.892 71.8756C283.174 72.5316 283.583 73.1255 284.095 73.6235C284.607 74.1214 285.212 74.5137 285.875 74.7778C286.539 75.0419 287.248 75.1728 287.962 75.1629H351.487C352.201 75.1728 352.91 75.0419 353.573 74.7778C354.237 74.5137 354.842 74.1214 355.354 73.6235C355.866 73.1255 356.274 72.5316 356.557 71.8756C356.839 71.2196 356.989 70.5145 356.999 69.8004V5.52538C356.989 4.8113 356.839 4.10613 356.557 3.45016C356.274 2.79419 355.866 2.20027 355.354 1.7023C354.842 1.20433 354.237 0.812078 353.573 0.547942C352.91 0.283806 352.201 0.152961 351.487 0.162878ZM305.062 62.9379H293.812V29.1879H305.062V62.9379ZM299.437 24.4629C297.885 24.4629 296.397 23.8465 295.3 22.7495C294.203 21.6524 293.587 20.1644 293.587 18.6129C293.587 17.0614 294.203 15.5734 295.3 14.4763C296.397 13.3792 297.885 12.7629 299.437 12.7629C300.261 12.6694 301.095 12.7511 301.885 13.0024C302.675 13.2538 303.403 13.6692 304.022 14.2215C304.64 14.7738 305.135 15.4504 305.474 16.2072C305.813 16.9639 305.988 17.7837 305.988 18.6129C305.988 19.442 305.813 20.2618 305.474 21.0186C305.135 21.7753 304.64 22.452 304.022 23.0043C303.403 23.5565 302.675 23.972 301.885 24.2233C301.095 24.4747 300.261 24.5563 299.437 24.4629ZM345.637 62.9379H334.387V44.8254C334.387 40.2879 332.774 37.3254 328.687 37.3254C327.422 37.3346 326.19 37.7314 325.157 38.4623C324.125 39.1931 323.341 40.2229 322.912 41.4129C322.618 42.2943 322.491 43.2225 322.537 44.1504V62.9004H311.287C311.287 62.9004 311.287 32.2254 311.287 29.1504H322.537V33.9129C323.559 32.1395 325.045 30.6786 326.836 29.6874C328.627 28.6962 330.654 28.2123 332.699 28.2879C340.199 28.2879 345.637 33.1254 345.637 43.5129V62.9379Z" fill="#1F2833"/>
<path d="M505.532 29.1027C505.718 23.7352 504.544 18.4078 502.12 13.6152C500.475 11.6487 498.193 10.3217 495.67 9.86525C485.236 8.91847 474.758 8.53041 464.282 8.70275C453.845 8.52259 443.405 8.89812 433.007 9.82775C430.952 10.2017 429.049 11.1659 427.532 12.6027C424.157 15.7152 423.782 21.0402 423.407 25.5402C422.863 33.6311 422.863 41.7494 423.407 49.8402C423.516 52.373 423.893 54.8871 424.532 57.3402C424.984 59.2342 425.899 60.9865 427.195 62.4402C428.722 63.9532 430.669 64.9723 432.782 65.3652C440.867 66.3632 449.013 66.7768 457.157 66.6027C470.282 66.7902 481.795 66.6027 495.407 65.5527C497.573 65.1839 499.574 64.1635 501.145 62.6277C502.195 61.5774 502.979 60.2919 503.432 58.8777C504.773 54.7626 505.432 50.4557 505.382 46.1277C505.532 44.0277 505.532 31.3527 505.532 29.1027ZM455.807 48.3777V25.1652L478.007 36.8278C471.782 40.2778 463.57 44.1777 455.807 48.3777Z" fill="#1F2833"/>
</svg>
