<svg width="281" height="282" viewBox="0 0 281 282" fill="none" xmlns="http://www.w3.org/2000/svg">
<path d="M281 140.904C281 173.977 269.304 205.984 247.981 231.266C226.658 256.547 197.081 273.473 164.482 279.05C131.882 284.627 98.3608 278.497 69.8458 261.742C41.3308 244.988 19.6596 218.689 8.66474 187.497C-2.33009 156.305 -1.94003 122.23 9.76593 91.2977C21.4719 60.3657 43.7395 34.5698 72.6305 18.4724C101.522 2.37495 135.175 -2.98688 167.638 3.33518C200.101 9.65723 229.282 27.2558 250.021 53.0185L225.894 72.4411C209.738 52.3719 187.006 38.6626 161.717 33.7377C136.428 28.8128 110.212 32.9896 87.7062 45.5296C65.2 58.0695 47.8535 78.1645 38.7346 102.261C29.6156 126.357 29.3117 152.901 37.8767 177.2C46.4417 201.498 63.3237 221.985 85.5369 235.037C107.75 248.089 133.863 252.865 159.258 248.52C184.653 244.175 207.693 230.99 224.304 211.296C240.915 191.602 250.026 166.668 250.026 140.904H281Z" fill="url(#paint0_linear_237_2345)"/>
<defs>
<linearGradient id="paint0_linear_237_2345" x1="140.847" y1="0.750732" x2="140.847" y2="281.057" gradientUnits="userSpaceOnUse">
<stop stop-color="#15B9B9"/>
<stop offset="1" stop-color="#3C1DFF"/>
</linearGradient>
</defs>
</svg>
