<svg width="281" height="281" viewBox="0 0 281 281" fill="none" xmlns="http://www.w3.org/2000/svg">
<path d="M280.613 140.529C280.613 173.602 268.917 205.609 247.594 230.891C226.271 256.172 196.694 273.098 164.095 278.675C131.496 284.252 97.9741 278.122 69.4591 261.367C40.9441 244.613 19.2728 218.314 8.27802 187.122C-2.7168 155.93 -2.32675 121.855 9.37921 90.9227C21.0852 59.9907 43.3528 34.1948 72.2438 18.0974C101.135 1.99995 134.788 -3.36188 167.251 2.96018C199.714 9.28223 228.896 26.8808 249.634 52.6435L225.507 72.0661C209.351 51.9969 186.619 38.2876 161.33 33.3627C136.041 28.4378 109.826 32.6146 87.3195 45.1546C64.8133 57.6945 47.4668 77.7895 38.3478 101.886C29.2289 125.982 28.925 152.526 37.49 176.825C46.055 201.123 62.937 221.61 85.1502 234.662C107.363 247.714 133.477 252.49 158.872 248.145C184.266 243.8 207.307 230.615 223.918 210.921C240.528 191.227 249.64 166.293 249.64 140.529H280.613Z" fill="url(#paint0_linear_237_2346)"/>
<defs>
<linearGradient id="paint0_linear_237_2346" x1="140.46" y1="0.375732" x2="140.46" y2="280.682" gradientUnits="userSpaceOnUse">
<stop stop-color="#15B9B9"/>
<stop offset="1" stop-color="#3C1DFF"/>
</linearGradient>
</defs>
</svg>
