<svg width="121" height="121" viewBox="0 0 121 121" fill="none" xmlns="http://www.w3.org/2000/svg">
<path d="M0.15332 10.0574C0.15332 4.53452 4.63047 0.057373 10.1533 0.057373H110.153C115.676 0.057373 120.153 4.53453 120.153 10.0574V110.057C120.153 115.58 115.676 120.057 110.153 120.057H10.1533C4.63047 120.057 0.15332 115.58 0.15332 110.057V10.0574Z" fill="#383E45"/>
<path d="M32.7527 92.5602L26.433 21.6824H95.8736L89.5455 92.5489L61.1111 100.432L32.7527 92.5602Z" fill="#E44F26"/>
<path d="M61.1533 94.408L84.1314 88.0377L89.5371 27.4789H61.1533V94.408Z" fill="#F1662A"/>
<path d="M61.1533 53.7646H49.6502L48.8571 44.863H61.1533V36.1696H39.3564L41.6993 62.458H61.1533V53.7646ZM61.1533 76.3405L61.1139 76.3518L51.4333 73.7389L50.8146 66.8061H42.0874L43.3052 80.4524L61.1139 85.3967L61.1533 85.3855V76.3405Z" fill="#EBEBEB"/>
<path d="M61.1224 53.7646V62.458H71.8268L70.8199 73.7333L61.1224 76.3489V85.3939L78.9452 80.4524L79.0746 78.9843L81.1164 56.0989L81.3302 53.7646H61.1224ZM61.1224 36.1696V44.863H82.1205L82.8996 36.1696H61.1224Z" fill="white"/>
</svg>
