<svg width="21" height="29" viewBox="0 0 21 29" fill="none" xmlns="http://www.w3.org/2000/svg">
<path d="M0.140625 23.1197V4.22196C0.140625 3.10818 0.491192 2.04003 1.11521 1.25247C1.73922 0.464907 2.58556 0.0224609 3.46805 0.0224609H18.996C19.2902 0.0224609 19.5723 0.169943 19.7803 0.432463C19.9883 0.694982 20.1052 1.05104 20.1052 1.42229V26.6193C20.1052 26.9906 19.9883 27.3466 19.7803 27.6091C19.5723 27.8716 19.2902 28.0191 18.996 28.0191H4.02262C2.99305 28.0191 2.00565 27.5029 1.27764 26.5841C0.54962 25.6653 0.140625 24.4191 0.140625 23.1197V23.1197ZM17.8869 25.2195V21.02H4.02262C3.58138 21.02 3.15821 21.2412 2.8462 21.635C2.53419 22.0287 2.35891 22.5628 2.35891 23.1197C2.35891 23.6766 2.53419 24.2107 2.8462 24.6045C3.15821 24.9982 3.58138 25.2195 4.02262 25.2195H17.8869ZM2.35891 18.692C2.87875 18.3805 3.44715 18.2193 4.02262 18.2203H17.8869V2.82213H3.46805C3.17389 2.82213 2.89177 2.96961 2.68377 3.23213C2.47577 3.49465 2.35891 3.8507 2.35891 4.22196V18.692Z" fill="white"/>
</svg>
