<svg width="121" height="121" viewBox="0 0 121 121" fill="none" xmlns="http://www.w3.org/2000/svg">
<path d="M0.84668 10.0574C0.84668 4.53452 5.32383 0.057373 10.8467 0.057373H110.847C116.37 0.057373 120.847 4.53453 120.847 10.0574V110.057C120.847 115.58 116.37 120.057 110.847 120.057H10.8467C5.32383 120.057 0.84668 115.58 0.84668 110.057V10.0574Z" fill="#383E45"/>
<path d="M60.4654 15.0826C37.6729 15.0826 39.096 24.9668 39.096 24.9668L39.1213 35.2071H60.8718V38.2815H30.4824C30.4824 38.2815 15.8975 36.6274 15.8975 59.6248C15.8975 82.623 28.6275 81.8074 28.6275 81.8074H36.2248V71.1353C36.2248 71.1353 35.8152 58.4053 48.7517 58.4053H70.3242C70.3242 58.4053 82.4444 58.6011 82.4444 46.6916V26.9998C82.4444 26.9998 84.2851 15.0826 60.4654 15.0826ZM48.4722 21.969C48.9862 21.9685 49.4952 22.0694 49.9701 22.2659C50.4451 22.4624 50.8766 22.7506 51.24 23.114C51.6035 23.4775 51.8917 23.909 52.0882 24.3839C52.2846 24.8589 52.3855 25.3679 52.3851 25.8819C52.3855 26.3959 52.2846 26.9049 52.0882 27.3798C51.8917 27.8548 51.6035 28.2863 51.24 28.6497C50.8766 29.0132 50.4451 29.3014 49.9701 29.4979C49.4952 29.6943 48.9862 29.7952 48.4722 29.7948C47.9582 29.7952 47.4492 29.6943 46.9742 29.4979C46.4993 29.3014 46.0678 29.0132 45.7043 28.6497C45.3409 28.2863 45.0527 27.8548 44.8562 27.3798C44.6597 26.9049 44.5588 26.3959 44.5593 25.8819C44.5588 25.3679 44.6597 24.8589 44.8562 24.3839C45.0527 23.909 45.3409 23.4775 45.7043 23.114C46.0678 22.7506 46.4993 22.4624 46.9742 22.2659C47.4492 22.0694 47.9582 21.9685 48.4722 21.969Z" fill="url(#paint0_linear_237_2385)"/>
<path d="M61.1128 104.399C83.9053 104.399 82.4822 94.5144 82.4822 94.5144L82.4569 84.2744H60.7061V81.2H91.0955C91.0955 81.2 105.68 82.8541 105.68 59.8559C105.68 36.8581 92.9503 37.6737 92.9503 37.6737H85.353V48.3454C85.353 48.3454 85.7626 61.0755 72.8262 61.0755H51.2536C51.2536 61.0755 39.1335 60.8797 39.1335 72.7896V92.4816C39.1335 92.4816 37.2934 104.399 61.1128 104.399ZM73.106 97.5128C72.592 97.5133 72.083 97.4124 71.6081 97.2159C71.1331 97.0194 70.7016 96.7312 70.3382 96.3678C69.9747 96.0044 69.6865 95.5728 69.49 95.0979C69.2936 94.6229 69.1927 94.1139 69.1931 93.5999C69.1926 93.0859 69.2935 92.5769 69.4899 92.1019C69.6864 91.6269 69.9746 91.1953 70.338 90.8318C70.7015 90.4684 71.133 90.1801 71.608 89.9836C72.083 89.7871 72.592 89.6862 73.106 89.6867C73.62 89.6862 74.129 89.7871 74.604 89.9836C75.0789 90.1801 75.5104 90.4683 75.8739 90.8317C76.2373 91.1952 76.5255 91.6267 76.722 92.1016C76.9185 92.5766 77.0194 93.0856 77.0189 93.5996C77.0194 94.1136 76.9185 94.6226 76.722 95.0975C76.5255 95.5725 76.2373 96.004 75.8739 96.3674C75.5104 96.7309 75.0789 97.0191 74.604 97.2156C74.129 97.412 73.62 97.5133 73.106 97.5128Z" fill="url(#paint1_linear_237_2385)"/>
<defs>
<linearGradient id="paint0_linear_237_2385" x1="16.3975" y1="14.5042" x2="96.4135" y2="93.8986" gradientUnits="userSpaceOnUse">
<stop stop-color="#387EB8"/>
<stop offset="1" stop-color="#366994"/>
</linearGradient>
<linearGradient id="paint1_linear_237_2385" x1="51.836" y1="51.4022" x2="99.617" y2="96.5711" gradientUnits="userSpaceOnUse">
<stop stop-color="#FFE052"/>
<stop offset="1" stop-color="#FFC331"/>
</linearGradient>
</defs>
</svg>
